# xmcd
#
# Track frame offsets:
#	150
#	26092
#	45584
#	67600
#	85718
#	100026
#	126616
#	133487
#	154955
#	175746
#	198261
#	237879
#	250760
#	269390
#
# Disc length: 3898
#
# Revision: 1
# Processed by: cddbd v1.5.1PL0 Copyright (c) Steve Scherf et al.
# Submitted via: CDex 1.50
# Normalized: r0:TRMNUM
#
DISCID=bc0f380e
DTITLE=Jimmy D Lane  - Long Gone
DYEAR=1997
DGENRE=Blues
TTITLE0=Hear my train a comin'
TTITLE1=Obsession babies
TTITLE2=Long gone
TTITLE3=I shall be released
TTITLE4=Shake, shiver, ache
TTITLE5=Rollin' stone
TTITLE6=Whiskey
TTITLE7=Boom boom
TTITLE8=White tears
TTITLE9=Oh what a feelin'
TTITLE10=California
TTITLE11=I'm in love
TTITLE12=Tears without a shoulder 
TTITLE13=Where I`m Going 
EXTD=YEAR: 1997
EXTT0=
EXTT1=
EXTT2=
EXTT3=
EXTT4=
EXTT5=
EXTT6=
EXTT7=
EXTT8=
EXTT9=
EXTT10=
EXTT11=
EXTT12=
EXTT13=
PLAYORDER=
